<svg width="81" height="81" viewBox="0 0 81 81" fill="none" xmlns="http://www.w3.org/2000/svg">
<path fill-rule="evenodd" clip-rule="evenodd" d="M7.77612 8.3241V73.6041H73.0561V8.3241H7.77612ZM57.3793 40.0313V40.0322C58.0053 40.0342 58.7167 40.0664 59.2518 40.1244C61.4309 40.3602 63.1278 41.3003 64.5715 43.071C65.2904 43.9531 65.5364 44.339 65.484 44.5041C65.4502 44.6106 64.957 44.9639 63.3886 46.0051C61.848 47.0278 61.3517 47.3341 61.2365 47.3341C61.1196 47.3341 60.8762 47.0836 60.5252 46.6025C59.8493 45.6763 59.1593 45.2535 58.0924 45.1125C56.9452 44.9606 55.9161 45.3222 55.4121 46.0547C54.9813 46.6805 54.9163 47.6877 55.2587 48.4194C55.6553 49.267 56.3734 49.7356 59.1252 50.9423C62.299 52.3339 63.9073 53.2864 65.0787 54.4685C66.3401 55.7415 66.9791 57.2114 67.1755 59.2904C67.2713 60.3037 67.1542 61.5048 66.8642 62.4813C66.1531 64.8751 64.234 66.6279 61.421 67.4528C60.6435 67.6808 59.9199 67.817 59.2042 67.8694C58.1117 67.9498 56.5477 67.9055 55.6065 67.7684C53.225 67.4216 50.5367 66.0358 49.1962 64.4644C48.5382 63.6932 47.6981 62.4238 47.6981 62.2004C47.6981 62.0927 47.7515 62.0315 47.9631 61.897C48.5905 61.4984 52.1861 59.4429 52.2559 59.4429C52.298 59.4429 52.4858 59.6643 52.6731 59.9348C53.0973 60.5472 54.1403 61.5999 54.6705 61.9511C55.1037 62.238 55.6576 62.4683 56.3151 62.6346C56.6918 62.7284 56.8912 62.7452 57.713 62.7452C58.5526 62.7449 58.7248 62.7308 59.1005 62.6299C60.094 62.3625 60.8696 61.8092 61.1982 61.1333C61.3423 60.8412 61.3451 60.8048 61.3451 60.0964V59.3621L61.1685 59.0118C60.7408 58.1627 59.8191 57.5802 56.9053 56.318C55.5669 55.7382 53.9276 54.9207 53.2876 54.514C51.8271 53.5858 50.8148 52.5247 50.1505 51.2258C49.4897 49.9342 49.3911 49.4533 49.3895 47.5111C49.3879 45.9907 49.3854 46.0094 49.7001 45.0389C49.9857 44.1583 50.5704 43.1746 51.2158 42.4887C52.5039 41.1194 54.3858 40.2394 56.4007 40.0644C56.6585 40.04 57.0036 40.0305 57.3792 40.0316L57.3793 40.0313ZM40.0417 40.3316H40.0424C43.9228 40.3336 46.1473 40.347 46.183 40.3694C46.2503 40.4111 46.2586 40.7488 46.2586 42.9042V45.3907L42.3865 45.4048L38.5143 45.4188V56.4129C38.5143 62.4598 38.5021 67.443 38.4852 67.487C38.4579 67.561 38.16 67.5667 35.6406 67.5667H32.8265L32.7975 67.4529C32.7787 67.3905 32.765 62.4072 32.7646 56.3789L32.7637 45.4182L28.8915 45.4045L25.0194 45.3904V42.9333C25.0194 40.9845 25.0328 40.4626 25.0847 40.4107C25.138 40.3558 27.1141 40.3416 35.629 40.3332C37.2708 40.3316 38.7481 40.3308 40.0417 40.3316Z" fill="#66A5FF"/>
</svg>
